<?xml version="1.0" standalone="no"?><!-- Generator: Gravit.io --><svg xmlns="http://www.w3.org/2000/svg" xmlns:xlink="http://www.w3.org/1999/xlink" style="isolation:isolate" viewBox="0 0 128 128" width="128" height="128"><defs><clipPath id="_clipPath_OuQi6dL4ctMwRDNXUrnEztCPRiWjiPpm"><rect width="128" height="128"/></clipPath></defs><g clip-path="url(#_clipPath_OuQi6dL4ctMwRDNXUrnEztCPRiWjiPpm)"><linearGradient id="_lgradient_2" x1="0%" y1="0%" x2="100.00000000000003%" y2="100%"><stop offset="0%" stop-opacity="1" style="stop-color:rgb(55,96,59)"/><stop offset="98.26086956521739%" stop-opacity="1" style="stop-color:rgb(36,51,40)"/><stop offset="100%" stop-opacity="1" style="stop-color:rgb(8,23,12)"/></linearGradient><path d=" M 0 64 C 0 28.677 28.677 0 64 0 C 99.323 0 128 28.677 128 64 C 128 99.323 99.323 128 64 128 C 28.677 128 0 99.323 0 64 Z " fill="url(#_lgradient_2)"/><g id="Group"><path d=" M 75.608 27 L 75.608 107.5 L 62.017 107.5 L 75.608 27 Z " fill="rgb(27,51,28)"/><path d=" M 62.017 107.5 L 62.017 27 L 75.608 27 L 62.017 107.5 Z " fill="rgb(27,51,28)"/><path d=" M 30 74.045 L 107.625 74.045 L 107.625 60.455 L 30 74.045 Z " fill="rgb(27,51,28)"/><path d=" M 107.625 60.455 L 30 60.455 L 30 74.045 L 107.625 60.455 Z " fill="rgb(27,51,28)"/></g><g id="Group"><path d=" M 70.5 25.5 L 70.5 102.5 L 57.5 102.5 L 70.5 25.5 Z " fill="rgb(89,147,93)"/><path d=" M 57.5 102.5 L 57.5 25.5 L 70.5 25.5 L 57.5 102.5 Z " fill="rgb(146,208,150)"/><path d=" M 26.875 70.5 L 101.125 70.5 L 101.125 57.5 L 26.875 70.5 Z " fill="rgb(89,147,93)"/><path d=" M 101.125 57.5 L 26.875 57.5 L 26.875 70.5 L 101.125 57.5 Z " fill="rgb(146,208,150)"/></g></g></svg>