<?xml version="1.0" standalone="no"?><!-- Generator: Gravit.io --><svg xmlns="http://www.w3.org/2000/svg" xmlns:xlink="http://www.w3.org/1999/xlink" style="isolation:isolate" viewBox="0 0 1000 1000" width="1000" height="1000"><defs><clipPath id="_clipPath_oISAPxLU8tQapeJCtbPcVZng01YQoGiU"><rect width="1000" height="1000"/></clipPath></defs><g clip-path="url(#_clipPath_oISAPxLU8tQapeJCtbPcVZng01YQoGiU)"><path d=" M 579.4 999 L 438.2 999 C 401.1 999 368.2 956.7 368.2 923.1 L 368.2 872.6 C 357.4 867.9 343.6 862.5 330.7 856.4 L 298.5 890.8 C 273.1 916.3 231.9 915.7 207.9 891.8 L 108.1 792.5 C 96.1 780.5 89.4 764.7 89.4 748 C 89.4 731.3 96 715.6 108 703.5 L 146.6 666 C 142.8 657.7 139.1 651.5 135.8 640.8 L 86.4 640.8 C 53.2 640.8 10 606.8 10 570.1 L 10 428.9 C 10 391.8 52.8 359.3 86.4 359.3 L 136.3 359.3 C 140.9 346.1 146.2 334.5 152.2 321.7 L 108.6 280.5 C 96 267.9 89.3 251.9 89.2 235 C 89.1 217.9 95.7 201.9 107.7 189.9 L 207.1 90 C 231.2 65.9 272.2 66 296.2 90 L 341.4 136.4 C 349.9 132.4 359.7 128.6 368.1 124.9 L 368.1 58.2 C 368.1 25.6 398.2 1 438.1 1 L 579.3 1 C 613.8 1 652 21 652 58.2 L 652 123.8 C 659.2 127.4 669.6 131.2 678 135 L 719.3 90.4 C 744.7 65 785.7 65.5 809.7 89.5 L 909.4 188.9 C 921.4 200.9 928 216.8 928 233.5 C 928 250.2 921.4 266.1 909.4 278 L 867.6 319 C 874.1 332.8 879.9 346.1 884.8 359.3 L 932.5 359.3 C 965.1 359.3 990 389 990 428.9 L 990 570.1 C 990 604.6 969.6 640.8 932.5 640.8 L 885.2 640.8 C 881.4 652.8 877.6 659.6 873.7 668 L 909 700.6 C 921.8 713.4 928.5 729.3 928.6 746.2 C 928.7 763.3 922.1 779.3 910.1 791.3 L 810.8 891.1 C 786.7 915.2 745.9 915.2 721.8 891.1 L 689.9 857.2 C 676.7 863.4 663 868.8 652.2 873.5 L 652.2 922.9 C 652.2 956.3 616.1 999 579.4 999 Z  M 338.6 796.9 C 355.3 806.4 376.1 814.9 392.9 821.7 C 398.2 823.8 403.1 825.9 407.5 827.7 L 413.8 830.1 C 420.8 833.1 425.8 839.9 425.8 847.4 L 425.8 923 C 425.8 926.2 428.5 931.5 432.1 935.8 C 435.7 940.2 440.8 942.7 446.4 942.7 L 572.7 942.6 C 577.9 942.6 583.1 940.4 586.6 936.6 C 590.8 932.1 594.7 926.3 594.7 922.8 L 594.7 848.3 C 594.7 840.7 599 833.8 606.1 830.9 L 611.8 828.5 C 616.3 826.6 621.3 824.6 626.7 822.4 C 643.5 815.7 664.5 807.3 681.3 797.9 L 687.6 794.3 C 695.1 790.1 704.4 791.5 710.4 797.7 L 752.8 841.9 C 756.3 845.6 761.1 847.6 766.2 847.7 C 771.3 847.7 776.1 845.8 779.7 842.1 L 861.3 760.1 C 864.9 756.5 866.9 751.5 866.8 746.4 C 866.7 741.3 864.5 736.4 860.7 732.9 L 814.6 690.4 C 808.3 684.6 806.7 675.4 810.7 667.8 L 814.1 661.4 C 822.7 645.1 831.1 625.5 839.2 603.2 L 841.4 597.4 C 844.1 590 851.2 585.4 859.1 585.4 L 914.4 585.4 C 924.8 585.4 932.5 576.1 932.5 565.7 L 932.5 434.2 C 932.5 423.8 924.8 415.6 914.4 415.6 L 859.7 415.6 C 852.2 415.6 845.4 411 842.4 404.1 L 840 398.3 C 837.9 393.4 835.5 387.6 833 381.4 C 826.2 364.6 817.8 343.6 808.4 327.2 L 804.8 320.9 C 800.6 313.4 801.9 304 808.1 298.1 L 860.6 247.2 C 864.2 243.7 866.3 238.9 866.3 233.8 C 866.3 228.7 864.4 223.9 860.8 220.3 L 778.6 138.4 C 775 134.8 770.1 132.8 765 132.9 C 759.9 133 755.1 135.1 751.6 138.9 L 699.7 194 C 694 200.2 684.8 201.7 677.3 197.9 L 671 194.6 C 654.5 186.1 634.9 177.8 613 170.1 L 606.9 167.9 C 599.4 165.3 594.6 158.1 594.6 150.2 L 594.6 76.3 C 594.6 65.9 585.7 57.3 575.3 57.3 L 443.5 57.3 C 433.1 57.3 425.7 65.9 425.7 76.3 L 425.7 151 C 425.7 158.9 420.2 166 412.7 168.7 L 406.2 170.9 C 385.3 178.4 365.3 187 348.8 195.7 L 342.5 199 C 335.1 202.9 326 201.4 320.2 195.5 L 265.1 139 C 261.6 135.4 256.7 133.3 251.7 133.3 C 246.7 133.3 241.8 135.3 238.2 138.8 L 156.3 221.1 C 152.7 224.7 150.7 229.6 150.8 234.7 C 150.9 239.8 153 244.6 156.7 248.1 L 211.5 299.8 C 217.8 305.7 219.2 315.2 215 322.7 L 211.4 329.1 C 202.2 345.6 193.9 366.4 187.3 383.1 C 185.2 388.5 183.2 393.5 181.3 397.9 L 178.9 403.8 C 176 410.8 169.1 415.5 161.5 415.5 L 86.4 415.5 C 83.2 415.5 77.9 418.6 73.6 422.2 C 69.2 425.8 66.7 431.1 66.7 436.7 L 66.8 563.4 C 66.8 568.9 69.2 574.5 73.4 578.1 C 77.8 581.8 83.2 585.6 86.5 585.6 L 162.2 585.6 C 170.2 585.6 177.3 590.2 180 597.8 L 182.2 603.9 C 188.6 622.3 197 641.4 206.2 659.5 L 209.4 665.7 C 213.2 673.1 211.7 682.1 205.7 687.9 L 157.2 734.6 C 153.6 738.1 151.5 742.9 151.4 748 C 151.4 753.1 153.3 757.9 157 761.5 L 239.1 843.2 C 242.7 846.8 247.6 848.8 252.7 848.7 C 257.8 848.6 262.6 846.4 266.1 842.7 L 308.9 796.8 C 314.8 790.4 324.4 789 332 793.3 L 338.6 796.9 L 338.6 796.9 Z " fill="rgb(227,238,227)"/><path d=" M 500 302.3 C 396 302.3 311.7 386.6 311.7 490.6 C 311.7 594.6 396 679 500 679 C 604 679 688.3 594.7 688.3 490.7 C 688.3 386.7 604 302.3 500 302.3 Z  M 500 641.3 C 416.8 641.3 349.3 573.8 349.3 490.6 C 349.3 407.4 416.8 339.9 500 339.9 C 583.2 339.9 650.7 407.4 650.7 490.6 C 650.7 573.9 583.2 641.3 500 641.3 Z " fill="rgb(227,238,227)"/></g></svg>